<svg xmlns="http://www.w3.org/2000/svg" xmlns:xlink="http://www.w3.org/1999/xlink" width="149.764" height="36.984" viewBox="0 0 149.764 36.984">
  <defs>
    <clipPath id="clip-path">
      <rect id="Rectangle_115" data-name="Rectangle 115" width="149.763" height="36.983" fill="none"/>
    </clipPath>
  </defs>
  <g id="Group_1101" data-name="Group 1101" transform="translate(-1574.236 -4725)">
    <path id="Path_1578" data-name="Path 1578" d="M33.371.034,21.42,12.48,33.3,24.931H44.033L31.748,12.48,44.1.034Z" transform="translate(1621.54 4725.076)" fill="#aa0034"/>
    <path id="Path_1579" data-name="Path 1579" d="M4.836.034l14.993,24.9h8.566L13.4.034Z" transform="translate(1584.916 4725.076)" fill="#515154"/>
    <path id="Path_1580" data-name="Path 1580" d="M14.992.034,0,24.938h8.57L23.562.034Z" transform="translate(1574.236 4725.076)" fill="#515154"/>
    <rect id="Rectangle_109" data-name="Rectangle 109" width="21.615" height="6.061" transform="translate(1582.938 4740.18)" fill="#515154"/>
    <rect id="Rectangle_110" data-name="Rectangle 110" width="8.57" height="16.228" transform="translate(1669.4 4733.779)" fill="#515154"/>
    <rect id="Rectangle_111" data-name="Rectangle 111" width="8.57" height="6.385" transform="translate(1669.397 4725.11)" fill="#515154"/>
    <path id="Path_1581" data-name="Path 1581" d="M33.659,0V25.006h8.464V0Z" transform="translate(1648.568 4725)" fill="#515154"/>
    <path id="Path_1582" data-name="Path 1582" d="M60.417,0,51.94,14.1,43.46,0h-8.6L49.867,24.968h4.142L69.018,0Z" transform="translate(1651.218 4725)" fill="#515154"/>
    <rect id="Rectangle_112" data-name="Rectangle 112" width="8.457" height="25.006" transform="translate(1715.543 4725.001)" fill="#515154"/>
    <rect id="Rectangle_113" data-name="Rectangle 113" width="8.57" height="24.897" transform="translate(1614.434 4725.11)" fill="#515154"/>
    <path id="Path_1583" data-name="Path 1583" d="M27.455.034,15.507,12.48,27.378,24.931H38.11L25.832,12.48,38.184.034Z" transform="translate(1608.482 4725.076)" fill="#515154"/>
    <g id="Group_1001" data-name="Group 1001" transform="translate(1574.237 4725.001)" clip-path="url(#clip-path)">
      <path id="Path_1584" data-name="Path 1584" d="M9.535,9.783,9.416,10.79a3.414,3.414,0,0,0-1.3-.266,1.175,1.175,0,0,0-.664.176.736.736,0,0,0-.34.674c0,.266.237.507.722.706a14.436,14.436,0,0,1,1.357.578,1.553,1.553,0,0,1,.722,1.364A1.6,1.6,0,0,1,9.2,15.439a3.014,3.014,0,0,1-1.681.417,7.687,7.687,0,0,1-1.643-.234l.116-1.094a3.127,3.127,0,0,0,1.447.369,1.559,1.559,0,0,0,.754-.18.684.684,0,0,0,.382-.6c0-.3-.241-.561-.719-.76-.841-.363-1.29-.558-1.357-.6a1.5,1.5,0,0,1-.728-1.335,1.671,1.671,0,0,1,.7-1.441A2.652,2.652,0,0,1,8,9.568a5.084,5.084,0,0,1,1.53.215" transform="translate(12.738 21.128)" fill="#aa0034" fill-rule="evenodd"/>
      <path id="Path_1585" data-name="Path 1585" d="M7.564,15.677V9.6H11.34v.963H8.847v1.489h2.281v.963H8.847v1.707h2.509v.956Z" transform="translate(16.704 21.199)" fill="#aa0034" fill-rule="evenodd"/>
      <path id="Path_1586" data-name="Path 1586" d="M13.205,13.325l-.924-2.509h-.016l-.924,2.509ZM9.089,15.677,11.572,9.6h1.447l2.509,6.077H14.117l-.549-1.389h-2.6l-.555,1.389Z" transform="translate(20.072 21.199)" fill="#aa0034" fill-rule="evenodd"/>
      <path id="Path_1587" data-name="Path 1587" d="M11.5,15.677V9.6h1.277v5.121h2.483v.956Z" transform="translate(25.388 21.199)" fill="#aa0034" fill-rule="evenodd"/>
      <path id="Path_1588" data-name="Path 1588" d="M16.98,13.325l-.927-2.509h-.016l-.924,2.509Zm-4.12,2.352L15.346,9.6H16.79l2.515,6.077H17.888l-.555-1.389H14.747l-.561,1.389Z" transform="translate(28.4 21.199)" fill="#aa0034" fill-rule="evenodd"/>
      <path id="Path_1589" data-name="Path 1589" d="M15.249,15.677V9.6h1.575l2.435,4.549h.016V9.6H20.5v6.077H18.941L16.5,11.134h-.026v4.543Z" transform="translate(33.674 21.199)" fill="#aa0034" fill-rule="evenodd"/>
      <path id="Path_1590" data-name="Path 1590" d="M19.092,15.677V10.563H17.263V9.6h4.944v.963H20.375v5.114Z" transform="translate(38.123 21.199)" fill="#aa0034" fill-rule="evenodd"/>
      <path id="Path_1591" data-name="Path 1591" d="M22.9,9.783l-.122,1.007a3.366,3.366,0,0,0-1.3-.266,1.208,1.208,0,0,0-.667.176.745.745,0,0,0-.334.674c0,.266.241.507.719.706.776.3,1.229.5,1.364.578a1.547,1.547,0,0,1,.715,1.364,1.6,1.6,0,0,1-.712,1.418,3.011,3.011,0,0,1-1.684.417,7.741,7.741,0,0,1-1.643-.234l.119-1.094a3.13,3.13,0,0,0,1.45.369,1.586,1.586,0,0,0,.754-.18.684.684,0,0,0,.382-.6c0-.3-.237-.561-.722-.76-.837-.363-1.29-.558-1.357-.6a1.5,1.5,0,0,1-.722-1.335,1.658,1.658,0,0,1,.693-1.441,2.662,2.662,0,0,1,1.54-.414,5.069,5.069,0,0,1,1.53.215" transform="translate(42.257 21.128)" fill="#aa0034" fill-rule="evenodd"/>
      <path id="Path_1592" data-name="Path 1592" d="M25.232,14.589l-1.418-1.508c-.517.257-.78.581-.78.972a.787.787,0,0,0,.311.645,1.172,1.172,0,0,0,.77.253,1.581,1.581,0,0,0,1.117-.363M24.1,11.926a2.065,2.065,0,0,0,.539-.363.74.74,0,0,0,.3-.517.513.513,0,0,0-.215-.456.743.743,0,0,0-.491-.17.79.79,0,0,0-.507.157.592.592,0,0,0-.228.491.762.762,0,0,0,.212.465,5.406,5.406,0,0,0,.395.391m.712.632,1.174,1.219a2.106,2.106,0,0,0,.407-1.325H27.5a3.232,3.232,0,0,1-.812,2.079l1.139,1.219H26.255l-.43-.539a2.384,2.384,0,0,1-1.739.645,2.69,2.69,0,0,1-1.614-.452,1.655,1.655,0,0,1-.372-2.272,2.442,2.442,0,0,1,1.049-.719,4.646,4.646,0,0,1-.626-.635,1.357,1.357,0,0,1-.26-.825A1.166,1.166,0,0,1,22.9,9.918a2.394,2.394,0,0,1,1.306-.35,2.289,2.289,0,0,1,1.258.321,1.185,1.185,0,0,1,.584,1.059,1.394,1.394,0,0,1-.356.972,3.454,3.454,0,0,1-.879.638" transform="translate(48.153 21.128)" fill="#aa0034" fill-rule="evenodd"/>
      <path id="Path_1593" data-name="Path 1593" d="M28.919,13.325,28,10.816h-.019l-.927,2.509ZM24.8,15.677,27.289,9.6h1.447l2.509,6.077H29.823l-.542-1.389h-2.6l-.555,1.389Z" transform="translate(54.765 21.199)" fill="#aa0034" fill-rule="evenodd"/>
      <path id="Path_1594" data-name="Path 1594" d="M27.208,15.677V9.6h1.745q3.686,0,3.69,3.042c0,2.031-1.232,3.035-3.69,3.035Zm1.28-5.114v4.158H29.2a2.09,2.09,0,0,0,1.45-.545,1.95,1.95,0,0,0,.651-1.534,1.993,1.993,0,0,0-.651-1.543,2.112,2.112,0,0,0-1.45-.536Z" transform="translate(60.085 21.199)" fill="#aa0034" fill-rule="evenodd"/>
      <path id="Path_1595" data-name="Path 1595" d="M29.409,15.677V9.6h1.283v2.451h2.563V9.6h1.28v6.077h-1.28V13.014H30.693v2.663Z" transform="translate(64.946 21.199)" fill="#aa0034" fill-rule="evenodd"/>
      <path id="Path_1596" data-name="Path 1596" d="M31.612,15.677V9.6h3.776v.963H32.9v1.489h2.281v.963H32.9v1.707H35.4v.956Z" transform="translate(69.81 21.199)" fill="#aa0034" fill-rule="evenodd"/>
      <path id="Path_1597" data-name="Path 1597" d="M37.042,9.783,36.92,10.79a3.37,3.37,0,0,0-1.3-.266,1.178,1.178,0,0,0-.667.176.738.738,0,0,0-.343.674c0,.266.244.507.728.706a14.352,14.352,0,0,1,1.351.578,1.545,1.545,0,0,1,.728,1.364,1.6,1.6,0,0,1-.715,1.418,3.029,3.029,0,0,1-1.688.417,7.718,7.718,0,0,1-1.636-.234l.119-1.094a3.089,3.089,0,0,0,1.447.369,1.582,1.582,0,0,0,.751-.18.684.684,0,0,0,.382-.6c0-.3-.237-.561-.722-.76-.834-.363-1.29-.558-1.357-.6a1.515,1.515,0,0,1-.725-1.335,1.65,1.65,0,0,1,.7-1.441,2.648,2.648,0,0,1,1.534-.414,5.069,5.069,0,0,1,1.53.215" transform="translate(73.483 21.128)" fill="#aa0034" fill-rule="evenodd"/>
      <rect id="Rectangle_114" data-name="Rectangle 114" width="1.277" height="6.077" transform="translate(112.411 30.8)" fill="#aa0034"/>
      <path id="Path_1598" data-name="Path 1598" d="M38,15.677,35.8,9.6h1.376l1.639,4.777h.016L40.46,9.6h1.267l-2.146,6.077Z" transform="translate(79.069 21.199)" fill="#aa0034" fill-rule="evenodd"/>
      <path id="Path_1599" data-name="Path 1599" d="M38.052,15.677V9.6h3.773v.963h-2.49v1.489h2.281v.963H39.336v1.707h2.509v.956Z" transform="translate(84.033 21.199)" fill="#aa0034" fill-rule="evenodd"/>
      <path id="Path_1600" data-name="Path 1600" d="M43.48,9.783l-.122,1.007a3.391,3.391,0,0,0-1.293-.266,1.208,1.208,0,0,0-.674.176.743.743,0,0,0-.34.674c0,.266.244.507.722.706a13.625,13.625,0,0,1,1.357.578,1.542,1.542,0,0,1,.725,1.364,1.593,1.593,0,0,1-.712,1.418,3.022,3.022,0,0,1-1.688.417,7.716,7.716,0,0,1-1.639-.234l.122-1.094a3.1,3.1,0,0,0,1.447.369,1.555,1.555,0,0,0,.751-.18.684.684,0,0,0,.382-.6c0-.3-.237-.561-.719-.76-.844-.363-1.293-.558-1.36-.6a1.5,1.5,0,0,1-.722-1.335,1.661,1.661,0,0,1,.7-1.441,2.666,2.666,0,0,1,1.537-.414,5.054,5.054,0,0,1,1.53.215" transform="translate(87.71 21.128)" fill="#aa0034" fill-rule="evenodd"/>
    </g>
  </g>
</svg>
