<svg id="Group_716" data-name="Group 716" xmlns="http://www.w3.org/2000/svg" width="177.728" height="64.452" viewBox="0 0 177.728 64.452">
  <rect id="Rectangle_21" data-name="Rectangle 21" width="13.896" height="32.481" transform="translate(122.849 31.97)" fill="#c00020"/>
  <rect id="Rectangle_22" data-name="Rectangle 22" width="13.896" height="10.663" transform="translate(122.849 18.152)" fill="#c00020"/>
  <path id="Path_1486" data-name="Path 1486" d="M1513.915,1381.676h14.156l-9.963,22.285,10.837,24.119H1514.44l-4.369-14.245L1505,1428.08h-14.33l10.922-24.119-10.313-22.285h14.507l4.282,13.632Z" transform="translate(-1352.813 -1363.629)" fill="#c00020" fill-rule="evenodd"/>
  <path id="Path_1487" data-name="Path 1487" d="M1451.354,1377.165c-.009.229-.011.465-.011.708h11.764v10.767h-11.764v35.637h-13.806v-46.562a17.472,17.472,0,0,1,17.471-17.472h8.115v11.137h-5.482A6.3,6.3,0,0,0,1451.354,1377.165Z" transform="translate(-1343.386 -1359.826)" fill="#c00020"/>
  <path id="Path_1488" data-name="Path 1488" d="M1356.984,1397.01v-23.422l.063-3.4-9.151,26.823Zm-9-37.273H1370.9v64.451h-13.921v-15.506H1344.1l-5.552,15.506h-15.467Z" transform="translate(-1323.078 -1359.736)" fill="#c00020" fill-rule="evenodd"/>
  <path id="Path_1489" data-name="Path 1489" d="M1386.279,1359.736h13.807v33.124a21.514,21.514,0,0,0,12.809-15.341h11.4a32.632,32.632,0,0,1-11.3,20.477l13.224,26.192h-15.468l-9-19.989c-.547.172-1.1.331-1.662.475v19.514h-13.807Z" transform="translate(-1334.291 -1359.736)" fill="#c00020"/>
  <path id="Path_1490" data-name="Path 1490" d="M1537.082,1407.949a4.7,4.7,0,1,1-1.376-3.4A4.622,4.622,0,0,1,1537.082,1407.949Zm-.848,0a3.838,3.838,0,1,0-1.124,2.8A3.8,3.8,0,0,0,1536.234,1407.949Zm-1.651-1.059a1.492,1.492,0,0,1-1.033,1.52l1.006,2.049h-1.242l-.938-1.9h-.9v1.9h-1.1v-5.205h2.418a1.914,1.914,0,0,1,1.268.4A1.529,1.529,0,0,1,1534.583,1406.891Zm-1.125.028c0-.439-.247-.661-.739-.661h-1.243v1.335h1.243Q1533.458,1407.593,1533.459,1406.919Z" transform="translate(-1359.354 -1367.444)" fill="#c00020" fill-rule="evenodd"/>
</svg>
